<svg xmlns="http://www.w3.org/2000/svg" xmlns:xlink="http://www.w3.org/1999/xlink" width="355" height="355" viewBox="0 0 355 355">
  <defs>
    <filter id="r-a" width="135.5%" height="164.9%" x="-17.7%" y="-32.5%" filterUnits="objectBoundingBox">
      <feGaussianBlur in="SourceGraphic" stdDeviation="10"/>
    </filter>
    <radialGradient id="r-b" cy="54.265%" r="51.684%" fx="50%" fy="54.265%" gradientTransform="matrix(0 1 -1.35108 0 1.233 .043)">
      <stop offset="0%"/>
      <stop offset="100%" stop-opacity="0"/>
    </radialGradient>
    <polygon id="r-c" points=".961 2.408 .961 109.016 98.234 57.355 10.321 1.214"/>
    <linearGradient id="r-e" x1="50%" x2="50%" y1="2.599%" y2="98.143%">
      <stop offset="0%" stop-color="#6BB5E2"/>
      <stop offset="100%" stop-color="#4B79BF"/>
    </linearGradient>
    <polygon id="r-f" points="97.393 .923 97.393 109.37 1.396 57.355 89.309 1.214"/>
    <polygon id="r-h" points="116.661 201.475 .602 134.317 .602 0 116.661 61.992"/>
    <linearGradient id="r-j" x1="50%" x2="50%" y1="0%" y2="100%">
      <stop offset="0%" stop-color="#7DD4E7"/>
      <stop offset="100%" stop-color="#7099D7"/>
    </linearGradient>
    <polygon id="r-k" points=".961 201.475 117.022 134.317 117.022 0 .961 61.992"/>
    <path id="r-m" d="M0,65.4188654 L116.676033,128.682159 L233.390633,65.4931442 L117.0172,1.10229808 L0,65.4188654 Z M26.9951833,65.3133894 L116.996433,15.8451635 L206.260467,65.237625 L116.676033,113.826389 L26.9951833,65.3133894 Z"/>
    <polygon id="r-o" points="0 .368 59.849 .368 59.849 52.806 0 52.806"/>
    <polygon id="r-q" points=".716 .446 35.833 .446 35.833 69.445 .716 69.445"/>
    <polygon id="r-s" points="1.037 201.402 116.911 134.268 116.911 .476 1.037 63.317"/>
    <path id="r-u" d="M40.24468,21.8656061 L1.65032,1.31969697 C1.50724,1.24484848 1.33476,1.24878788 1.19952,1.33348485 C1.06036,1.41621212 0.97608,1.56787879 0.97608,1.72939394 L0.97608,35.2575758 C0.97608,35.425 1.06624,35.5786364 1.21128,35.6593939 L39.80368,57.3890909 C39.8762,57.4284848 39.95264,57.4481818 40.02908,57.4481818 C40.10944,57.4481818 40.1898,57.4265152 40.26232,57.3851515"/>
    <path id="r-w" d="M40.24468,21.8656061 L1.65032,1.31969697 C1.50724,1.24484848 1.33476,1.24878788 1.19952,1.33348485 C1.06036,1.41621212 0.97608,1.56787879 0.97608,1.72939394 L0.97608,35.2575758 C0.97608,35.425 1.06624,35.5786364 1.21128,35.6593939 L39.80368,57.3890909 C39.8762,57.4284848 39.95264,57.4481818 40.02908,57.4481818 C40.10944,57.4481818 40.1898,57.4265152 40.26232,57.3851515"/>
    <path id="r-x" d="M40.48576,20.6975758 L1.8914,0.153636364 C1.74832,0.0768181818 1.57584,0.0807575758 1.4406,0.165454545 C1.30144,0.248181818 1.21716,0.399848485 1.21716,0.561363636 L1.21716,34.0895455 C1.21716,34.2569697 1.30732,34.4106061 1.45236,34.4933333 L40.04476,56.2210606 C40.11728,56.2604545 40.19372,56.2801515 40.27016,56.2801515 C40.35052,56.2801515 40.43088,56.2584848 40.5034,56.2171212 C40.64452,56.1343939 40.73076,55.9827273 40.73076,55.8192424 L40.73076,21.105303 C40.73076,20.9359091 40.63668,20.7783333 40.48576,20.6975758 Z"/>
    <linearGradient id="r-A" x1="0%" x2="145.626%" y1="0%" y2="50%">
      <stop offset="0%" stop-color="#FBDE7B"/>
      <stop offset="100%" stop-color="#F6AF67"/>
    </linearGradient>
    <path id="r-z" d="M19.28052,16.3130303 L18.23584,13.9828788 L26.68932,11.1622727 L27.73008,13.4845455 L19.28052,16.3130303 Z M18.11628,19.1277273 L18.97868,17.4357576 L27.89276,26.065 L27.02448,27.7490909 L18.11628,19.1277273 Z"/>
    <linearGradient id="r-C" x1="50%" x2="50%" y1="0%" y2="100%">
      <stop offset="0%" stop-color="#FBDE7B"/>
      <stop offset="100%" stop-color="#F6AF67"/>
    </linearGradient>
    <path id="r-D" d="M9.60792,9.66136364 C9.61968,12.5154545 7.64596,14.0636364 5.19596,13.1181818 C2.74792,12.1727273 0.74284,9.08030303 0.71932,6.20848485 C0.6958,3.33863636 2.66952,1.79045455 5.13128,2.75166667 C7.59108,3.71287879 9.59616,6.80727273 9.60792,9.66136364 Z M15.97204,7.11454545 C14.602,6.57878788 13.48872,4.86121212 13.4848,3.27560606 C13.48088,1.6919697 14.59024,0.845 15.9642,1.38666667 C17.33816,1.92636364 18.45144,3.64590909 18.45144,5.22560606 C18.45144,6.80530303 17.34208,7.65030303 15.97204,7.11454545 Z M18.92968,20.5478788 C18.92968,22.3363636 17.68116,23.3074242 16.1406,22.7184848 C14.60004,22.1275758 13.3476,20.1933333 13.34172,18.3989394 C13.3378,16.6045455 14.58632,15.6315152 16.13276,16.2283333 C17.67724,16.8251515 18.92968,18.7593939 18.92968,20.5478788 Z"/>
    <path id="r-F" d="M68.8113462,0.115590361 C68.5714615,-0.0296385542 68.2708654,-0.0370481928 68.0235769,0.0948433735 L1.13575,35.7959639 C0.875134615,35.9352651 0.71225,36.2079398 0.71225,36.5043253 L0.71225,116.830735 C0.71225,117.116747 0.864769231,117.38053 1.11205769,117.525759 C1.23644231,117.59541 1.37415385,117.632458 1.51334615,117.632458 C1.65105769,117.632458 1.78876923,117.59541 1.91167308,117.525759 L68.7995,78.8489277 C69.0467885,78.7051807 69.2007885,78.4413976 69.2007885,78.1553855 L69.2007885,0.801722892 C69.2007885,0.520156627 69.0527115,0.260819277 68.8113462,0.115590361"/>
    <path id="r-H" d="M68.8113462,0.115590361 C68.5714615,-0.0296385542 68.2708654,-0.0370481928 68.0235769,0.0948433735 L1.13575,35.7959639 C0.875134615,35.9352651 0.71225,36.2079398 0.71225,36.5043253 L0.71225,116.830735 C0.71225,117.116747 0.864769231,117.38053 1.11205769,117.525759 C1.23644231,117.59541 1.37415385,117.632458 1.51334615,117.632458 C1.65105769,117.632458 1.78876923,117.59541 1.91167308,117.525759 L68.7995,78.8489277 C69.0467885,78.7051807 69.2007885,78.4413976 69.2007885,78.1553855 L69.2007885,0.801722892 C69.2007885,0.520156627 69.0527115,0.260819277 68.8113462,0.115590361"/>
    <linearGradient id="r-J" x1="50.001%" x2="50.001%" y1="0%" y2="100%">
      <stop offset="0%" stop-color="#0A97A5"/>
      <stop offset="100%" stop-color="#264891"/>
    </linearGradient>
    <path id="r-I" d="M68.3197308,1.0373494 C68.0783654,0.892120482 67.7777692,0.884710843 67.529,1.01808434 L0.644134615,36.7192048 C0.382038462,36.858506 0.219153846,37.1296988 0.219153846,37.4260843 L0.219153846,117.752494 C0.219153846,118.039988 0.371673077,118.303771 0.620442308,118.447518 C0.744826923,118.518651 0.882538462,118.554217 1.01876923,118.554217 C1.15796154,118.554217 1.29715385,118.518651 1.42005769,118.447518 L68.3078846,79.7706867 C68.5551731,79.6284217 68.7062115,79.3631566 68.7062115,79.0771446 L68.7062115,1.72496386 C68.7062115,1.44339759 68.5596154,1.18257831 68.3197308,1.0373494 Z"/>
    <linearGradient id="r-M" x1="50%" x2="50%" y1="0%" y2="97.676%">
      <stop offset="0%" stop-color="#DBF0FF"/>
      <stop offset="100%" stop-color="#A8C8DA"/>
    </linearGradient>
    <path id="r-L" d="M8.61215385,35.2891446 L6.21923077,36.5028434 C3.41317308,37.925494 1.12242308,36.6199157 1.12982692,33.6027108 L1.18757692,9.69921687 C1.19498077,6.68053012 3.49017308,3.22171084 6.28734615,2.0109759 L8.67286538,0.981036145 C11.4715192,-0.229698795 13.7563462,1.18109639 13.7519038,4.11679518 L13.7208077,27.3637952 C13.7163654,30.299494 11.4182115,33.866494 8.61215385,35.2891446"/>
    <linearGradient id="r-O" x1="50%" x2="50%" y1="0%" y2="100%">
      <stop offset="0%" stop-color="#D4E4F1"/>
      <stop offset="100%" stop-color="#B5CFDD"/>
    </linearGradient>
    <path id="r-P" d="M5.39628502,39.4266479 C2.42464672,40.8284976 -0.00313160748,39.6252433 3.03207225e-06,36.7499912 L0.0344840671,8.73928233 C0.0391860264,5.86403023 2.46382972,2.56530271 5.42136213,1.40585621 L7.94631429,0.417260132 C10.905414,-0.740726111 13.3269231,0.595411862 13.3269231,3.38742913 L13.3269231,30.6037565 C13.3269231,33.3957738 10.8975774,36.8288452 7.92750645,38.2306949 L5.39628502,39.4266479 Z"/>
    <linearGradient id="r-S" x1="50%" x2="50%" y1="0%" y2="100%">
      <stop offset="0%" stop-color="#ECF7FF"/>
      <stop offset="100%" stop-color="#CCE5F4"/>
    </linearGradient>
    <path id="r-R" d="M8.02428846,29.7585904 L5.63284615,30.9722892 C2.82530769,32.3949398 0.539,31.0078554 0.550846154,27.8883976 L0.611557692,10.9395904 C0.623403846,7.82013253 2.92303846,4.24127711 5.72169231,2.98460241 L8.10869231,1.91316867 C10.9073462,0.657975904 13.1921731,2.11471084 13.1832885,5.15266265 L13.1403462,21.6494819 C13.1329423,24.6874337 10.8318269,28.3359398 8.02428846,29.7585904"/>
    <path id="r-U" d="M63.8782075,34.1647353 L1.32958491,1.14961765 C1.0970566,1.02782353 0.819811321,1.03525 0.596226415,1.17041176 C0.372641509,1.30408824 0.235509434,1.54619118 0.235509434,1.80611765 L0.235509434,55.6851618 C0.235509434,55.954 0.381584906,56.2020441 0.61709434,56.33275 L63.1642264,91.2520147 C63.279,91.3158824 63.4042075,91.3470735 63.5294151,91.3470735 C63.6605849,91.3470735 63.7902642,91.3129118 63.9065283,91.2445882 C64.1345849,91.1109118 64.2746981,90.8673235 64.2746981,90.6044265 L64.2746981,34.8212353 C64.2746981,34.5464559 64.1226604,34.2939559 63.8782075,34.1647353"/>
    <path id="r-W" d="M63.8782075,34.1647353 L1.32958491,1.14961765 C1.0970566,1.02782353 0.819811321,1.03525 0.596226415,1.17041176 C0.372641509,1.30408824 0.235509434,1.54619118 0.235509434,1.80611765 L0.235509434,55.6851618 C0.235509434,55.954 0.381584906,56.2020441 0.61709434,56.33275 L63.1642264,91.2520147 C63.279,91.3158824 63.4042075,91.3470735 63.5294151,91.3470735 C63.6605849,91.3470735 63.7902642,91.3129118 63.9065283,91.2445882 C64.1345849,91.1109118 64.2746981,90.8673235 64.2746981,90.6044265 L64.2746981,34.8212353 C64.2746981,34.5464559 64.1226604,34.2939559 63.8782075,34.1647353"/>
    <path id="r-Y" d="M63.8782075,34.1647353 L1.32958491,1.14961765 C1.0970566,1.02782353 0.819811321,1.03525 0.596226415,1.17041176 C0.372641509,1.30408824 0.235509434,1.54470588 0.235509434,1.80611765 L0.235509434,55.6851618 C0.235509434,55.954 0.381584906,56.2020441 0.61709434,56.33275 L63.1642264,91.2505294 C63.2775094,91.3143971 63.4042075,91.3455882 63.5294151,91.3455882 C63.6590943,91.3455882 63.7902642,91.3114265 63.9065283,91.2445882 C64.1345849,91.1109118 64.2746981,90.8673235 64.2746981,90.6029412 L64.2746981,34.8212353 C64.2746981,34.5464559 64.1211698,34.2939559 63.8782075,34.1647353 Z"/>
    <path id="r-aa" d="M35.9136981,16.4258676 L3.95149057,0.387661765 L1.185,3.73848529 C0.949490566,4.27764706 1.72458491,5.19704412 2.90511321,5.78225 L36.4219811,22.5126029 C37.604,23.1052353 38.4103962,22.9819559 38.2151321,22.2378235 L35.9136981,16.4258676 Z"/>
    <linearGradient id="r-ac" x1="50%" x2="50%" y1="4.721%" y2="97.676%">
      <stop offset="0%" stop-color="#C7DBE8"/>
      <stop offset="100%" stop-color="#96B5C7"/>
    </linearGradient>
    <linearGradient id="r-ae" x1="24.385%" y1="0%" y2="100%">
      <stop offset="0%" stop-color="#ECF7FF"/>
      <stop offset="100%" stop-color="#CCE5F4"/>
    </linearGradient>
    <path id="r-ad" d="M36.4249623,28.6067647 L2.92449057,11.8214559 C1.74396226,11.2332794 0.970358491,10.3123971 1.20437736,9.77323529 L7.80162264,1.80463235 C8.03564151,1.26992647 8.84203774,1.14070588 9.59477358,1.51945588 L30.9724717,12.2997206 C31.7252075,12.6814412 32.5003019,13.6038088 32.6940755,14.3509118 L38.2166226,28.3349559 C38.4118868,29.0790882 37.6054906,29.2008824 36.4249623,28.6067647"/>
    <path id="r-ag" d="M8.76267306,15.8315471 L8.79583019,2.222 C8.79881132,0.911970588 9.7080566,0.303 10.8140566,0.873352941 C11.9230377,1.44370588 12.8263208,2.98098529 12.8233396,4.29101471 L12.7973343,17.9070218 L17.3665849,14.8455147 C18.125283,14.3390294 19.355,14.9673088 20.1122075,16.2491176 C20.8694151,17.5279559 20.8679245,18.9746324 20.1077358,19.4811176 L12.1466226,24.8148088 C11.781434,25.0613676 11.286566,25.0539412 10.7708302,24.7940147 C10.2550943,24.5340882 9.76171698,24.0439412 9.39801887,23.4305147 L1.47715094,10.0123676 C1.1015283,9.37072059 0.913716981,8.68451471 0.915207547,8.09633824 C0.916698113,7.50667647 1.10749057,7.01355882 1.48907547,6.75660294 C2.24926415,6.24269118 3.47898113,6.868 4.23320755,8.15129412 L8.76267306,15.8315471 Z"/>
  </defs>
  <g fill="none" fill-rule="evenodd" transform="translate(44 -1)">
    <g transform="translate(0 48)">
      <polygon fill="#000" points="48.95 226.354 133.486 272.191 218.05 226.408 133.733 179.755" filter="url(#r-a)" opacity=".189"/>
      <polygon fill="url(#r-b)" points="16.317 243.688 132.993 306.951 249.707 243.762 133.334 179.372" opacity=".032"/>
      <g transform="translate(16.317)">
        <g transform="translate(115.7 11.885)">
          <mask id="r-d" fill="#fff">
            <use xlink:href="#r-c"/>
          </mask>
          <use fill="#929292" fill-rule="nonzero" xlink:href="#r-c"/>
          <g fill="url(#r-e)" mask="url(#r-d)">
            <rect width="125" height="113" transform="translate(-7.417 1.486)"/>
          </g>
        </g>
        <g transform="translate(19.283 11.885)">
          <mask id="r-g" fill="#fff">
            <use xlink:href="#r-f"/>
          </mask>
          <use fill="#797979" fill-rule="nonzero" xlink:href="#r-f"/>
          <g fill="url(#r-e)" mask="url(#r-g)">
            <rect width="119" height="92" transform="rotate(-90 56.367 49.02)"/>
          </g>
        </g>
        <g transform="translate(0 65.365)">
          <mask id="r-i" fill="#fff">
            <use xlink:href="#r-h"/>
          </mask>
          <use fill="#A3A3A3" fill-rule="nonzero" xlink:href="#r-h"/>
          <g fill="url(#r-j)" mask="url(#r-i)">
            <rect width="117" height="202"/>
          </g>
        </g>
        <g transform="translate(115.7 65.365)">
          <mask id="r-l" fill="#fff">
            <use xlink:href="#r-k"/>
          </mask>
          <use fill="#727272" fill-rule="nonzero" xlink:href="#r-k"/>
          <g fill="url(#r-e)" mask="url(#r-l)">
            <rect width="119" height="202" transform="translate(-1.483)"/>
          </g>
        </g>
        <mask id="r-n" fill="#fff">
          <use xlink:href="#r-m"/>
        </mask>
        <use fill="#BCBCBC" xlink:href="#r-m"/>
        <g fill="#90E9FC" mask="url(#r-n)">
          <rect width="233" height="233" transform="translate(0 -102.505)"/>
        </g>
      </g>
    </g>
    <g opacity=".8" transform="translate(42.658 169.441)">
      <mask id="r-p" fill="#fff">
        <use xlink:href="#r-o"/>
      </mask>
      <path fill="#FFF" d="M59.8492412,41.1975674 C59.8307607,39.4153789 59.5350733,37.4991515 58.9964998,35.5644055 C58.4658466,33.6331868 57.6333457,31.6993227 56.6811619,29.8457055 C54.7459935,26.1569897 52.1930496,22.8210079 49.4333006,19.9850266 C46.6673914,17.1710911 43.6805967,14.8236463 40.6568411,12.9003642 C37.6304453,10.9911914 34.5538884,9.53969101 31.5310128,8.41270588 C28.5081371,7.327167 25.5327827,6.57937092 22.706152,6.25661931 C19.8804013,5.91270366 17.189294,5.93915871 14.7859539,6.39683108 C12.390534,6.84568509 10.2828812,7.73722027 8.77892361,9.13757425 C7.26176566,10.5114732 6.42750479,12.4171186 6.42838481,14.7204716 C6.42662477,17.0194155 7.25384546,19.7072485 8.77188343,22.5035473 C10.272321,25.3201283 12.3826138,28.2054924 14.7780337,30.9268352 C17.1822538,33.6816878 19.8742412,36.2892738 22.7017519,38.6737557 C25.5292626,41.0996838 28.5072571,43.257534 31.5310128,45.1473064 C34.5547684,47.0132693 37.6322054,48.6305546 40.6594811,49.7566579 C43.6832368,50.8880522 46.6700315,51.5776472 49.4359407,51.5944021 C52.1956897,51.5996931 54.7477535,50.9083344 56.682922,49.2337298 C57.6342258,48.3748225 58.4667266,47.3122113 58.9964998,45.9365487 C59.5359533,44.567059 59.8307607,42.9621193 59.8492412,41.1975674 M59.8492412,41.1975674 C59.8624415,44.7637082 58.7157728,47.6314356 56.8642065,49.4841709 C55.0223204,51.3421973 52.567059,52.3148613 49.8680315,52.6702408 C47.1593237,52.9956379 44.1918895,52.7231509 41.1038922,51.9921097 C38.015015,51.2698868 34.7932544,50.050309 31.5310128,48.4674152 C25.02413,45.2848727 18.2083595,40.627902 12.0438053,34.2460622 C8.9822087,31.1226026 6.0842962,27.560871 3.80767925,23.633178 C2.68741123,21.6904954 1.69914651,19.6596294 1.04265008,17.6269998 C0.384393616,15.605834 0.0174244359,13.5926047 -0.000176004403,11.741633 C0.0103842598,9.90300703 0.382633572,8.2292842 1.04001002,6.81482087 C1.68594618,5.37742982 2.68301112,4.26631772 3.8015191,3.35979134 C4.92354717,2.44268294 6.23830006,1.80070707 7.62433473,1.32716167 C9.00948938,0.841270588 10.5037668,0.577601924 12.0358851,0.451499519 C18.2021993,-0.0661376249 25.02237,1.85714451 31.5310128,5.05820555 C34.7950144,6.7098825 38.017655,8.70635694 41.1065323,11.0908388 C44.1954096,13.4876663 47.1628438,16.2407552 49.8706715,19.3456962 C52.5696991,22.4850288 55.0240805,26.0053141 56.8650865,29.7839771 C58.7166528,33.5741039 59.8615615,37.6455361 59.8492412,41.1975674" mask="url(#r-p)"/>
      <g transform="translate(22.976 16.534)">
        <mask id="r-r" fill="#fff">
          <use xlink:href="#r-q"/>
        </mask>
        <path fill="#FFF" d="M15.1593894,28.9961974 C19.1238601,31.1694543 21.5305457,30.1117611 21.5305457,25.4910305 C21.5305457,20.4847938 19.1238601,17.7871419 15.1593894,15.7687996 L10.6278109,13.4815825 L10.6278109,26.5344787 L15.1593894,28.9961974 Z M14.0973832,36.5549648 L10.6991397,34.6301055 L10.6991397,53.4308701 L0.715753404,47.3161923 L0.715753404,0.446492562 L17.070296,8.22605787 C25.0009987,12.1007052 32.2219361,18.7869647 32.2219361,30.3859778 C32.2219361,37.2974868 28.8950213,40.3859867 23.9389925,40.1171118 L35.8332854,69.4449513 L24.7174448,62.252103 L14.0973832,36.5549648 Z" mask="url(#r-r)"/>
      </g>
    </g>
    <g transform="translate(134 113)">
      <mask id="r-t" fill="#fff">
        <use xlink:href="#r-s"/>
      </mask>
      <path stroke="#979797" stroke-width=".01" d="M1.04172694,201.393363 L116.906154,134.268267 L116.913538,0.480153532 L1.04172694,63.3165939 L1.04172694,201.393363 Z"/>
      <path fill="#FFF" d="M46.3555701,122.793791 C46.2660105,122.24008 46.1413832,121.72106 45.5250255,121.61317 C44.8683855,121.497908 44.4246288,121.974072 43.9989926,122.505408 C43.5785709,123.030094 43.100268,123.53338 42.7684933,124.097541 C42.1625647,125.127894 41.5567664,126.179962 41.1178331,127.253685 C40.7039296,128.26579 41.2526288,129.281581 42.1454871,129.564894 C42.7181731,129.746581 43.7786786,129.247428 44.3577524,128.410357 C45.5203324,126.729392 46.1497265,124.948961 46.3579167,123.118247 M84.4052301,75.2129903 C82.4628169,76.4203974 80.6965244,77.8790083 79.3235381,79.8190491 C78.6565994,80.7611366 78.8524051,81.4922171 79.7605159,81.4899781 C80.309215,81.4885142 80.9057575,81.3632569 81.4779221,81.1887235 C82.1127914,80.9951822 82.7681277,80.7547 83.3715795,80.4049372 C84.3360072,79.8459579 85.3082568,79.2501721 86.1960309,78.5386053 C87.0061085,77.8893913 87.3128534,76.6655217 86.9976349,75.8462819 C86.7191789,75.1225239 85.9536855,74.6302877 84.8703664,75.076607 M39.0781688,119.748157 C37.664118,120.313675 36.3524024,121.129279 35.1916475,122.291345 C34.3746607,123.109056 34.0115989,124.538512 34.3826129,125.271749 C34.9378302,126.36897 36.1035389,126.662775 37.5789908,125.504467 C38.5264713,124.760653 39.4941581,124.028453 40.3698085,123.191807 C41.3308468,122.273622 42.3534166,121.364105 42.913327,120.110706 C43.2267204,119.409258 43.0550319,118.897502 42.3968276,118.882314 C41.8714634,118.87017 41.3037312,119.010917 40.8259497,119.074465 M75.3112162,78.6857551 C75.3949094,79.1871625 75.7775257,79.3595949 76.2842479,79.1028394 C76.7057125,78.8892939 77.1553355,78.5848733 77.4799402,78.2196309 C78.7204774,76.824139 79.6670454,75.2631269 80.2957876,73.5941099 C80.7341994,72.4307892 80.8902443,71.3012836 80.2708882,70.404515 C79.7723789,69.6826471 78.8440618,69.4911828 77.9298239,69.9403089 C76.8030939,70.4939584 76.2287131,71.4810836 75.830714,72.550406 C75.2923135,73.9967572 75.126361,75.4181541 75.1103263,76.8290235 M38.1451586,148.529412 C37.556829,148.429283 36.936039,148.392561 36.3869487,148.216081 C35.2201971,147.841287 34.5755506,146.86736 33.9731417,145.874216 C33.1395987,144.500351 32.3832308,143.063625 31.5032785,141.729276 C31.1845402,141.245882 30.6918973,140.761143 30.1242954,140.664798 C29.2327408,140.513329 28.2155159,140.663835 27.2423538,140.734313 C25.6649578,140.848161 24.2900159,140.548047 23.1377347,139.730705 C22.0357736,138.949093 21.7935586,137.637668 21.7101261,136.206072 C21.6837927,135.754342 21.5976226,135.308324 21.4507031,134.913596 C20.9313357,133.51693 19.7319933,132.889072 18.466687,132.339735 C17.8421164,132.068695 17.2185887,131.791897 16.6296073,131.465964 C15.7417028,130.974446 15.2301572,130.117591 14.8101266,129.183367 L14.8101266,127.229614 C15.6733924,124.437294 17.4875282,122.514546 19.6686367,120.965879 C22.2671685,119.120381 25.0634614,118.059085 27.8721389,117.252657 C29.7524993,116.712854 31.6355972,116.257348 33.514654,115.825492 C34.4707385,115.605774 35.4338626,115.454186 36.3705229,115.390531 C38.1154358,115.271716 38.9152147,114.303758 38.53677,112.69651 C38.1343385,110.987647 37.8183378,109.244759 37.8799997,107.350305 C37.9064634,106.538182 37.8325474,105.748045 37.8966862,104.929817 C37.9921121,103.713501 38.0735892,102.486449 38.3298834,101.254628 C39.1350072,97.3853037 40.7092745,93.672204 43.1260799,90.1218941 C45.405352,86.7736765 48.1609716,84.0224147 51.5040082,81.901001 C53.6407932,80.5449697 55.8286806,79.4861254 58.0924394,78.6561508 C60.1121581,77.9155751 62.1224907,77.2832242 64.1422094,76.879736 C64.5687582,76.7945158 65.0003911,76.7019002 65.4169019,76.6759803 C66.931202,76.5815088 68.438593,76.5208564 69.9514591,76.4336841 C70.7338997,76.3886475 71.1822191,75.9745255 71.3781552,75.1430885 C71.435124,74.9016341 71.5149063,74.6481492 71.5104739,74.4219563 C71.4694095,72.3399141 71.937153,70.1953947 72.4327943,68.0477307 C73.2821113,64.3678306 74.2110802,60.6874275 75.9666829,57.0848542 C76.4950454,56.0002443 77.1498603,54.9238301 77.8838057,53.9331522 C78.737555,52.7808359 79.8329979,51.8508061 81.0346868,51.1119521 L83.2508631,50.5 C84.5525407,50.5995698 85.5360015,51.1506674 86.097737,52.2678396 C86.5173765,53.1018794 86.9041644,53.9595785 87.2931685,54.8151027 C87.9122639,56.1765458 88.6720212,57.3627759 90.3984225,57.4374143 C91.3465548,57.4783083 92.2660072,57.6344478 93.2296528,57.6004625 C94.8363806,57.5435101 95.938472,58.2167177 96.6018908,59.4678433 C97.1507204,60.503135 97.476759,61.7015411 98.0006891,62.7571241 C98.3187756,63.3981711 98.7049117,64.0692715 99.2745994,64.4351788 C100.191705,65.0242667 101.270201,65.3995951 102.309066,65.8153032 C103.585323,66.3259286 104.653781,67.0498431 105.151899,68.4185112 L105.151899,69.9815137 C104.318877,72.273657 102.772377,74.0683188 100.844174,75.6014655 C98.3395034,77.5931067 95.6319878,79.0905826 92.9480681,80.6227022 C91.3855335,81.5147291 89.7695499,82.2581812 88.1625614,82.9884689 C86.8001345,83.6078526 85.4088973,84.071858 84.0437327,84.6797541 C82.9054003,85.1868518 82.7722994,85.5570455 83.0094302,86.5828028 C83.4646589,88.5503517 84.0557261,90.4757026 84.2373222,92.5462924 C84.407316,94.484235 84.2248073,96.5699208 84.0084042,98.622374 C83.7232997,101.326944 82.7623917,104.024832 81.4141744,106.667376 C80.0151154,109.409273 78.2625111,111.952475 76.1053894,114.243066 C73.1095103,117.424329 69.5953066,119.395809 65.8825596,120.791831 C64.2740067,121.396859 62.6431618,121.844709 61.0239191,122.267604 C59.6738767,122.620071 58.3119712,122.923975 56.9808315,123.080928 C55.560784,123.248494 54.1733273,123.206215 52.7667072,123.278116 C51.6172939,123.336957 51.3251498,123.718374 51.1619349,124.900918 C50.9394047,126.512994 50.6924966,128.144435 50.2590386,129.76526 C49.1822377,133.792441 47.3421596,137.680144 45.1512739,141.468297 C43.6225034,144.111332 42.0067805,146.720286 39.1880651,148.241434" mask="url(#r-t)" opacity=".8"/>
    </g>
    <g transform="translate(80)">
      <g opacity=".85" transform="translate(5.88 1.97)">
        <mask id="r-v" fill="#fff">
          <use xlink:href="#r-u"/>
        </mask>
        <use fill="#000" fill-rule="nonzero" xlink:href="#r-u"/>
        <g fill="url(#r-e)" mask="url(#r-v)">
          <rect width="49" height="65" transform="translate(-5.88 -1.97)"/>
        </g>
        <use fill="#000" fill-opacity=".3" fill-rule="nonzero" style="mix-blend-mode:multiply" xlink:href="#r-w"/>
      </g>
      <g opacity=".9" transform="translate(1.96 5.91)">
        <mask id="r-y" fill="#fff">
          <use xlink:href="#r-x"/>
        </mask>
        <use fill="#7B7B7B" fill-rule="nonzero" xlink:href="#r-x"/>
        <g fill="url(#r-j)" mask="url(#r-y)">
          <rect width="49" height="65" transform="translate(-1.96 -5.91)"/>
        </g>
      </g>
      <g transform="translate(1.96 15.758)">
        <path fill="#000" fill-opacity=".3" fill-rule="nonzero" d="M27.0797405,25.9056823 L21.8428989,20.8374625 C21.0649467,21.3395147 20.0406362,21.430982 18.91596,20.9969697 C16.46792,20.0515152 14.46284,16.9590909 14.43932,14.0872727 C14.4158,11.2174242 16.38952,9.66924242 18.85128,10.6304545 C20.0819575,11.1113644 21.1988113,12.1262443 22.0091513,13.3778455 L27.2384459,11.633028 C27.2166923,11.4730394 27.2051923,11.313056 27.2048,11.1543939 C27.20088,9.57075758 28.31024,8.72378788 29.6842,9.26545455 C31.05816,9.80515152 32.17144,11.524697 32.17144,13.1043939 C32.17144,14.6840909 31.06208,15.5290909 29.69204,14.9933333 C29.1746099,14.790991 28.6938036,14.4200758 28.2955517,13.9513629 L23.0629556,15.7029711 C23.2321027,16.3109276 23.3254101,16.9310126 23.32792,17.5401515 C23.3308631,18.2544178 23.2094549,18.8868946 22.9873504,19.4189655 L27.9609152,24.2336066 C28.4578915,23.893606 29.1220698,23.8251256 29.85276,24.1071212 C31.39724,24.7039394 32.64968,26.6381818 32.64968,28.4266667 C32.64968,30.2151515 31.40116,31.1862121 29.8606,30.5972727 C28.32004,30.0063636 27.0676,28.0721212 27.06172,26.2777273 C27.0614397,26.1494216 27.0675628,26.0253155 27.0797405,25.9056823 Z"/>
        <mask id="r-B" fill="#fff">
          <use xlink:href="#r-z"/>
        </mask>
        <use fill="url(#r-A)" fill-rule="nonzero" xlink:href="#r-z"/>
        <g fill="url(#r-C)" mask="url(#r-B)">
          <rect width="29" height="32" transform="rotate(55 12.944 26.242)"/>
        </g>
        <g transform="translate(11.76 7.879)">
          <mask id="r-E" fill="#fff">
            <use xlink:href="#r-D"/>
          </mask>
          <use fill="#FFF" fill-rule="nonzero" xlink:href="#r-D"/>
          <g fill="#E0F1FF" mask="url(#r-E)">
            <rect width="26" height="25" transform="rotate(55 14.632 10.991)"/>
          </g>
        </g>
      </g>
    </g>
    <g transform="translate(154 3)">
      <g opacity=".85">
        <mask id="r-G" fill="#fff">
          <use xlink:href="#r-F"/>
        </mask>
        <use fill="#000" fill-opacity=".3" fill-rule="nonzero" xlink:href="#r-F"/>
        <g fill="url(#r-e)" mask="url(#r-G)">
          <rect width="86" height="132" transform="translate(-3.468 -5.007)"/>
        </g>
        <use fill="#000" fill-opacity=".3" fill-rule="nonzero" style="mix-blend-mode:multiply" xlink:href="#r-H"/>
      </g>
      <g opacity=".9" transform="translate(6.897 3.884)">
        <mask id="r-K" fill="#fff">
          <use xlink:href="#r-I"/>
        </mask>
        <use fill="url(#r-J)" fill-rule="nonzero" xlink:href="#r-I"/>
        <g fill="url(#r-e)" mask="url(#r-K)">
          <rect width="89" height="136" transform="translate(-10.365 -8.892)"/>
        </g>
      </g>
      <g transform="translate(17.77 31.12)">
        <path fill="#000" fill-opacity=".2" fill-rule="nonzero" d="M8.21530769,54.9217229 L5.67578846,56.1946988 C2.87121154,57.6010482 0.584903846,56.2006265 0.595269231,53.0811687 L0.657461538,36.1323614 C0.667826923,33.0129036 2.96746154,29.4459036 5.76759615,28.2040482 L8.30119231,27.080747 C11.0998462,25.8388916 13.3831923,27.3074819 13.3757885,30.3454337 L13.3328462,46.842253 C13.3239615,49.8802048 11.0228462,53.5153735 8.21530769,54.9217229 Z M23.7900385,47.1149277 L21.2505192,48.3879036 C18.4444615,49.794253 16.1551923,48.4753373 16.1625962,45.4581325 L16.2203462,21.5546386 C16.22775,18.5359518 18.5214615,15.088988 21.3201154,13.8930723 L23.8522308,12.8097831 C26.6494038,11.6138675 28.9357115,13.0365181 28.9312692,15.9722169 L28.8986923,39.2192169 C28.89425,42.1549157 26.5975769,45.7070964 23.7900385,47.1149277 Z M39.36625,39.3066506 L36.8267308,40.5796265 C34.0206731,41.9859759 31.7269615,40.7515301 31.7314038,37.8336145 L31.7625,9.40727711 C31.7654615,6.48936145 34.0562115,3.15206024 36.8533846,1.98874699 L39.3840192,0.936578313 C42.1797115,-0.225253012 44.4675,1.14256627 44.4675,3.97601205 L44.4675,31.5961807 C44.4675,34.4296265 42.1723077,37.9003012 39.36625,39.3066506 Z"/>
        <g transform="translate(17.77 13.337)">
          <mask id="r-N" fill="#fff">
            <use xlink:href="#r-L"/>
          </mask>
          <use fill="url(#r-M)" fill-rule="nonzero" xlink:href="#r-L"/>
          <g fill="url(#r-O)" mask="url(#r-N)">
            <rect width="22" height="46" transform="translate(-4.442 -4.446)"/>
          </g>
        </g>
        <g transform="translate(34.058 1.482)">
          <mask id="r-Q" fill="#fff">
            <use xlink:href="#r-P"/>
          </mask>
          <use fill="url(#r-C)" fill-rule="nonzero" xlink:href="#r-P"/>
          <g fill="url(#r-C)" mask="url(#r-Q)">
            <rect width="25" height="53" transform="translate(-5.923 -7.41)"/>
          </g>
        </g>
        <g transform="translate(2.962 26.675)">
          <mask id="r-T" fill="#fff">
            <use xlink:href="#r-R"/>
          </mask>
          <use fill="url(#r-S)" fill-rule="nonzero" xlink:href="#r-R"/>
          <g fill="#E0F1FF" mask="url(#r-T)">
            <rect width="27" height="44" transform="translate(-7.404 -7.41)"/>
          </g>
        </g>
      </g>
    </g>
    <g transform="translate(49 40)">
      <g opacity=".85" transform="translate(13.415)">
        <mask id="r-V" fill="#fff">
          <use xlink:href="#r-U"/>
        </mask>
        <use fill="#101010" fill-rule="nonzero" xlink:href="#r-U"/>
        <g fill="url(#r-e)" mask="url(#r-V)">
          <rect width="70" height="98" transform="translate(-2.981 -1.485)"/>
        </g>
        <path fill="#000" fill-opacity=".3" fill-rule="nonzero" d="M63.8782075,34.1647353 L1.32958491,1.14961765 C1.0970566,1.02782353 0.819811321,1.03525 0.596226415,1.17041176 C0.372641509,1.30408824 0.235509434,1.54619118 0.235509434,1.80611765 L0.235509434,55.6851618 C0.235509434,55.954 0.381584906,56.2020441 0.61709434,56.33275 L63.1642264,91.2520147 C63.279,91.3158824 63.4042075,91.3470735 63.5294151,91.3470735 C63.6605849,91.3470735 63.7902642,91.3129118 63.9065283,91.2445882 C64.1345849,91.1109118 64.2746981,90.8673235 64.2746981,90.6044265 L64.2746981,34.8212353 C64.2746981,34.5464559 64.1226604,34.2939559 63.8782075,34.1647353" mask="url(#r-V)" style="mix-blend-mode:multiply"/>
      </g>
      <g opacity=".85" transform="translate(5.962 4.456)">
        <mask id="r-X" fill="#fff">
          <use xlink:href="#r-W"/>
        </mask>
        <use fill="#6C6C6C" fill-rule="nonzero" xlink:href="#r-W"/>
        <g fill="url(#r-e)" mask="url(#r-X)" opacity=".802">
          <rect width="72" height="98" transform="translate(-2.981 -1.485)"/>
        </g>
      </g>
      <g opacity=".9" transform="translate(0 8.912)">
        <mask id="r-Z" fill="#fff">
          <use xlink:href="#r-Y"/>
        </mask>
        <use fill="#929292" fill-rule="nonzero" xlink:href="#r-Y"/>
        <g fill="url(#r-j)" mask="url(#r-Z)">
          <rect width="73" height="98" transform="translate(-5.962 -5.941)"/>
        </g>
      </g>
      <g transform="rotate(2 -950.988 425.123)">
        <path fill="#000" fill-opacity=".2" fill-rule="nonzero" d="M39.4060943,41.9744118 L5.90562264,25.1891029 C4.72509434,24.6009265 3.95149057,23.6800441 4.18550943,23.1408824 L10.7827547,15.1722794 C11.0167736,14.6375735 11.8231698,14.5083529 12.5759057,14.8871029 L33.9536038,25.6673676 C34.7063396,26.0490882 35.481434,26.9714559 35.6752075,27.7185588 L41.1977547,41.7026029 C41.3930189,42.4467353 40.5866226,42.5685294 39.4060943,41.9744118"/>
        <path fill="#000" fill-opacity=".2" d="M20.6872014,18.8021353 L20.7203585,5.19258824 C20.7233396,3.88255882 21.6325849,3.27358824 22.7385849,3.84394118 C23.847566,4.41429412 24.7508491,5.95157353 24.7478679,7.26160294 L24.7218626,20.87761 L29.2911132,17.8161029 C30.0498113,17.3096176 31.2795283,17.9378971 32.0367358,19.2197059 C32.7939434,20.4985441 32.7924528,21.9452206 32.0322642,22.4517059 L24.0711509,27.7853971 C23.7059623,28.0319559 23.2110943,28.0245294 22.6953585,27.7646029 C22.1796226,27.5046765 21.6862453,27.0145294 21.3225472,26.4011029 L13.4016792,12.9829559 C13.0260566,12.3413088 12.8382453,11.6551029 12.8397358,11.0669265 C12.8412264,10.4772647 13.0320189,9.98414706 13.4136038,9.72719118 C14.1737925,9.21327941 15.4035094,9.83858824 16.1577358,11.1218824 L20.6872014,18.8021353 Z" transform="rotate(-2 22.722 15.797)"/>
        <g transform="translate(0 22.28)">
          <mask id="r-ab" fill="#fff">
            <use xlink:href="#r-aa"/>
          </mask>
          <use fill="#000" fill-rule="nonzero" xlink:href="#r-aa"/>
          <g fill="url(#r-ac)" mask="url(#r-ab)" opacity=".847">
            <rect width="43" height="28" transform="translate(-1.49 -2.97)"/>
          </g>
        </g>
        <g transform="translate(0 11.882)">
          <mask id="r-af" fill="#fff">
            <use xlink:href="#r-ad"/>
          </mask>
          <use fill="url(#r-ae)" fill-rule="nonzero" xlink:href="#r-ad"/>
          <g fill="#E0F1FF" mask="url(#r-af)">
            <rect width="43" height="33" transform="translate(-1.49 -1.485)"/>
          </g>
        </g>
        <g transform="rotate(-3 43.266 -157.4)">
          <mask id="r-ah" fill="#fff">
            <use xlink:href="#r-ag"/>
          </mask>
          <use fill="url(#r-C)" fill-rule="nonzero" xlink:href="#r-ag"/>
          <g fill="url(#r-C)" mask="url(#r-ah)">
            <rect width="42" height="42" transform="translate(-7.453 -7.426)"/>
          </g>
        </g>
      </g>
    </g>
  </g>
</svg>
